#!OML:ASF F:\VICON\USERDATA\INSTALL\rory3\rory3.ASF
:FULLY-SPECIFIED
:DEGREES
222
root -1.59259 17.639 3.26819 174.121 -15.6414 -180.399
lowerback 26.0533 -1.4974 0.833639
upperback 2.39052 -1.96606 3.58417
thorax -11.7559 -1.12781 4.34429
lowerneck -10.0489 -5.91272 -4.13333
upperneck 12.9046 -7.50208 -0.652207
head 5.68021 -3.97653 -0.136709
rclavicle 7.17613e-014 -4.77083e-014
rhumerus 13.4654 -8.43358 -81.2011
rradius 99.5901
rwrist -12.6786
rhand -18.0447 12.4853
rfingers 7.12502
rthumb 8.22715 -17.3345
lclavicle 7.17613e-014 -4.77083e-014
lhumerus 15.6095 -23.4154 96.7416
lradius 80.7082
lwrist 44.8086
lhand -2.48187 54.9282
lfingers 7.12502
lthumb 23.2111 -276.451
rfemur -18.0233 -4.62598 17.3379
rtibia 73.1188
rfoot -8.48914 -12.3107
rtoes 6.49543
lfemur -19.6528 0.254959 -27.3379
ltibia 34.9037
lfoot -5.4691 4.39524
ltoes 9.36681
223
root -1.60628 17.6384 3.1838 173.87 -16.7547 -180.531
lowerback 26.2682 -1.74846 0.907513
upperback 1.95568 -2.20385 3.43019
thorax -12.3686 -1.20087 4.24277
lowerneck -9.78477 -6.0267 -4.0881
upperneck 13.0311 -7.65806 -0.917963
head 5.66565 -4.07808 -0.233094
rclavicle 4.96962e-015 1.11319e-014
rhumerus 13.2238 -9.31978 -80.878
rradius 100.887
rwrist -14.1964
rhand -15.8468 10.5409
rfingers 7.12502
rthumb 10.3479 -19.1845
lclavicle 4.96962e-015 1.11319e-014
lhumerus 15.8287 -23.8554 96.7187
lradius 81.1705
lwrist 44.9336
lhand -3.09684 58.5434
lfingers 7.12502
lthumb 22.621 -272.762
rfemur -17.8054 -4.99553 17.0254
rtibia 73.0433
rfoot -9.38569 -12.2235
rtoes 7.92691
lfemur -19.042 -0.208689 -27.6025
ltibia 34.9918
lfoot -5.8172 4.01011
ltoes 10.472
224
root -1.62428 17.6287 3.11847 173.835 -17.2192 -180.743
lowerback 26.3129 -1.7893 0.86013
upperback 1.58025 -2.21632 3.27612
thorax -12.8346 -1.17079 4.11751
lowerneck -9.20574 -6.15143 -4.07385
upperneck 12.8124 -7.83888 -1.14325
head 5.49232 -4.18545 -0.294576
rclavicle -2.40529e-014 1.90833e-014
rhumerus 13.0408 -9.36444 -80.266
rradius 101.774
rwrist -12.8743
rhand -16.5506 9.78954
rfingers 7.12502
rthumb 9.66893 -19.9685
lclavicle -2.40529e-014 1.90833e-014
lhumerus 16.1789 -24.2526 96.6074
lradius 81.5279
lwrist 44.847
lhand -3.58132 61.8997
lfingers 7.12502
lthumb 22.156 -450.65
rfemur -18.212 -4.68802 16.668
rtibia 72.9053
rfoot -10.1127 -11.9995
rtoes 8.26185
lfemur -18.7166 -0.399915 -27.896
ltibia 35.1291
lfoot -6.24466 3.84719
ltoes 10.9699
225
root -1.63307 17.6277 3.05564 173.666 -17.7138 -180.45
lowerback 26.1428 -1.85099 1.129
upperback 1.4241 -2.19071 3.32635
thorax -12.9342 -1.1619 4.00817
lowerneck -8.6608 -6.38707 -4.39816
upperneck 12.3082 -8.15724 -0.955774
head 5.26949 -4.33558 -0.18025
rclavicle 4.01545e-014 -5.40694e-014
rhumerus 13.5544 -9.3357 -79.6315
rradius 102.62
rwrist -11.7891
rhand -16.3273 8.63265
rfingers 7.12502
rthumb 9.88437 -21.1153
lclavicle 4.01545e-014 -5.40694e-014
lhumerus 16.8967 -24.7052 96.2925
lradius 81.6594
lwrist 44.6465
lhand -4.00031 63.668
lfingers 7.12502
lthumb 21.7537 -452.466
rfemur -18.7712 -4.25121 17.0052
rtibia 72.4953
rfoot -10.1313 -12.0656
rtoes 6.48997
lfemur -18.4703 -0.513205 -27.6023
ltibia 35.3342
lfoot -6.6416 3.43551
ltoes 11.3643
226
root -1.63715 17.6283 2.98707 173.428 -18.267 -180.027
lowerback 25.8441 -1.90976 1.39921
upperback 1.49037 -2.19373 3.46067
thorax -12.6984 -1.18431 3.9866
lowerneck -9.61127 -6.47452 -4.72999
upperneck 12.9349 -8.22248 -0.568812
head 5.65794 -4.35526 -0.0640399
rclavicle -1.31198e-014 -3.33958e-014
rhumerus 14.5635 -9.21453 -79.0441
rradius 103.188
rwrist -10.2761
rhand -16.0785 8.05841
rfingers 7.12502
rthumb 10.1244 -21.678
lclavicle -1.31198e-014 -3.33958e-014
lhumerus 18.1021 -25.1665 95.7254
lradius 81.5939
lwrist 44.2909
lhand -3.93744 64.133
lfingers 7.12502
lthumb 21.814 -452.924
rfemur -19.1054 -3.82954 17.5212
rtibia 71.9218
rfoot -10.4183 -12.0388
rtoes 4.69709
lfemur -18.2701 -0.545698 -27.1569
ltibia 35.5609
lfoot -6.91557 2.97507
ltoes 11.3046
227
root -1.64326 17.6233 2.91547 173.154 -18.9021 -179.951
lowerback 25.6576 -1.95408 1.38474
upperback 1.66266 -2.28153 3.49111
thorax -12.3901 -1.23686 4.04034
lowerneck -9.88894 -6.7844 -4.26864
upperneck 12.2349 -8.56272 -1.2926
head 5.43858 -4.53115 -0.378301
rclavicle -6.12257e-014 5.56597e-014
rhumerus 15.5725 -8.92932 -78.371
rradius 103.725
rwrist -8.56691
rhand -15.7197 7.71445
rfingers 7.12502
rthumb 10.4706 -22.0048
lclavicle -6.12257e-014 5.56597e-014
lhumerus 19.4181 -25.7306 95.0769
lradius 81.7424
lwrist 44.8874
lhand -4.97611 64.3625
lfingers 7.12502
lthumb 20.8164 -453.266
rfemur -19.0831 -3.49837 17.5749
rtibia 71.2236
rfoot -11.0976 -11.738
rtoes 4.007
lfemur -17.9078 -0.640172 -27.1105
ltibia 35.8133
lfoot -7.12652 2.70481
ltoes 11.2942
228
root -1.65016 17.6222 2.84538 172.922 -19.6431 -180.16
lowerback 25.5423 -2.01799 1.14103
upperback 1.79037 -2.45588 3.42837
thorax -12.1632 -1.31295 4.15535
lowerneck -10.7855 -6.99532 -4.55953
upperneck 12.5723 -8.7619 -1.12764
head 5.71902 -4.62433 -0.342677
rclavicle 5.60573e-014 1.11319e-014
rhumerus 16.3971 -8.48102 -77.5641
rradius 104.205
rwrist -7.03681
rhand -15.3122 8.02699
rfingers 7.12502
rthumb 10.8636 -21.672
lclavicle 5.60573e-014 1.11319e-014
lhumerus 20.6545 -25.9705 94.5909
lradius 81.4796
lwrist 44.8917
lhand -3.5003 66.3727
lfingers 7.12502
lthumb 22.2337 -455.114
rfemur -18.9912 -3.26919 17.2692
rtibia 70.44
rfoot -11.7762 -11.252
rtoes 3.36175
lfemur -17.4277 -0.726503 -27.3784
ltibia 36.0335
lfoot -7.36156 2.34998
ltoes 10.5131
